<svg width="35" height="35" viewBox="0 0 35 35" fill="none" xmlns="http://www.w3.org/2000/svg">
<path d="M35 17.5652C35 7.86316 27.166 0 17.5 0C7.83398 0 0 7.86316 0 17.5652C0 25.7989 5.65332 32.7152 13.2754 34.6158V22.9308H9.66602V17.5652H13.2754V15.2529C13.2754 9.27661 15.9688 6.50461 21.8203 6.50461C22.9277 6.50461 24.8418 6.72417 25.6279 6.94374V11.8016C25.2178 11.7604 24.5 11.733 23.6045 11.733C20.7334 11.733 19.626 12.824 19.626 15.6577V17.5652H25.3408L24.3564 22.9308H19.6191V35C28.2871 33.9502 35 26.5468 35 17.5652Z" fill="#800080"/>
</svg>
